<mxfile host="app.diagrams.net" modified="2024-02-06T09:50:56.381Z" agent="Mozilla/5.0 (X11; Linux x86_64) AppleWebKit/537.36 (KHTML, like Gecko) Chrome/119.0.0.0 Safari/537.36" version="23.1.1" etag="4kNC8QsyXiJ3hmfBv-Do" type="github">
  <diagram name="Page-1" id="XQC6mJlUrPIainfREpKT">
    <mxGraphModel>
      <root>
        <mxCell id="0" />
        <mxCell id="1" parent="0" />
      </root>
    </mxGraphModel>
  </diagram>
</mxfile>
